<svg xmlns="http://www.w3.org/2000/svg" viewBox="0 0 328.75 298.02"><defs><style>.cls-1{fill:#fff;}.cls-2{fill:#adadad;}</style></defs><g id="Layer_2" data-name="Layer 2"><g id="Layer_1-2" data-name="Layer 1"><path class="cls-1" d="M220.29,80.55c0,1.24,0,2.51-.07,3.74A86.12,86.12,0,0,1,218.78,97a84.21,84.21,0,0,1-3.2,12.1,78.65,78.65,0,0,1-4.87,11.28,74.92,74.92,0,0,1-6.51,10.32,71.31,71.31,0,0,1-7.95,9,69.24,69.24,0,0,1-9.32,7.5,72.89,72.89,0,0,1-10.68,5.95c-1,.42-1.94.85-2.91,1.23-.47.18-.92.39-1.42.55l-1.19.38a4.76,4.76,0,0,0,.2.76c.07.27.16.54.23.84l.38,1.53q.41,1.56.81,3.15l3.18,12.57c1.06,4.21,2.11,8.43,3.15,12.62q.78,3.11,1.55,6.26c.52,2.09,1,4.21,1.58,6.31a3.8,3.8,0,0,1,.2,1.46,3.15,3.15,0,0,1-.4,1.28,3,3,0,0,1-4.39.75,2.89,2.89,0,0,1-.79-1.06,8.34,8.34,0,0,1-.41-1.4c-1-4.21-2.09-8.4-3.13-12.61s-2.07-8.38-3.13-12.55-2.12-8.36-3.18-12.52c-.54-2.1-1.08-4.22-1.62-6.31l-.81-3.11-.2-.74c0-.21-.14-.57-.18-.77s.16-.2.34-.29.45-.16.65-.25c1-.36,1.91-.67,2.86-1s2-.7,3-1.08a62.88,62.88,0,0,0,15.93-8.85,65.26,65.26,0,0,0,8.85-8.09A69.7,69.7,0,0,0,208.21,112a77.69,77.69,0,0,0,3.88-11.81,84.66,84.66,0,0,0,2.14-25.31,82.48,82.48,0,0,0-1.85-12.64,83.37,83.37,0,0,0-3.63-11.87,78.86,78.86,0,0,0-5.29-11,76.22,76.22,0,0,0-15.25-18.69,74.07,74.07,0,0,0-9.62-7.28A83.07,83.07,0,0,0,167.8,7.57c-.92-.4-1.85-.79-2.77-1.17l-1.37-.54a6.26,6.26,0,0,1-1.2-.56,2.89,2.89,0,0,1-1.19-2,3,3,0,0,1,3-3.34,4.51,4.51,0,0,1,1.44.38l1.49.61q2.92,1.18,5.76,2.57a86.31,86.31,0,0,1,10.59,6.11A82,82,0,0,1,201.39,26a82.31,82.31,0,0,1,6.89,10,84.84,84.84,0,0,1,5.45,11,88.84,88.84,0,0,1,3.9,11.89,90.62,90.62,0,0,1,2.66,21.69Z"></path><path class="cls-1" d="M240.33,79.63c0,2.32-.09,4.66-.24,7-.14,2-.34,4.1-.59,6.13a101.5,101.5,0,0,1-3.94,18.09,96.39,96.39,0,0,1-13,26.56,84.67,84.67,0,0,1-14.58,16,76.65,76.65,0,0,1-12,8.36c-.77.42-1.74,1-2.48,1.44s-1.31.74-2.19,1.3l-.22.14.13.56c0,.11.07.23.09.34.25,1,.52,2.05.79,3.06,1.15,4.53,2.3,9.06,3.45,13.56.85,3.41,2.79,11,3.65,14.42a3.22,3.22,0,0,1-.09,1.87,2.93,2.93,0,0,1-5.5-.13c-.16-.52-.27-1-.41-1.58-1.66-6.6-4.39-17.39-6.08-24-.92-3.61-1.89-7.21-2.86-10.81-.09-.32-.18-.5-.13-.52.24-.12.56-.25.83-.39l1.73-.87c1.18-.63,2.33-1.27,3.5-1.9,1.57-.83,3.13-1.66,4.66-2.59a74.36,74.36,0,0,0,15.88-12.95,84.82,84.82,0,0,0,14.69-21.83A94.59,94.59,0,0,0,232.13,101c.52-2.34,1-4.71,1.31-7.07.29-2,.54-4.08.7-6.13q.2-2.27.27-4.53c.07-1.69.09-3.38.07-5.09,0-2-.12-4-.27-6-.12-1.35-.23-2.7-.39-4-.24-2.07-.56-4.15-.92-6.2-.56-3.08-1.26-6.15-2.12-9.16a96.33,96.33,0,0,0-13.29-28.32,101,101,0,0,0-9.75-12.1,3.19,3.19,0,0,1-.86-1.42,2.93,2.93,0,0,1,4.73-3,3.5,3.5,0,0,1,.39.38,103.4,103.4,0,0,1,23.36,39.26,100.16,100.16,0,0,1,3.1,12c.41,2.1.77,4.22,1,6.36.2,1.5.36,3,.5,4.57C240.2,73.62,240.33,76.64,240.33,79.63Z"></path><path class="cls-1" d="M72.38,68.62a2.91,2.91,0,0,1,2.86,2.09c.2.68.38,1.35.56,2,1.67,6.35,3.29,12.73,4.92,19.1s3.22,12.7,4.82,19.06q2.63,10.44,5.27,20.9c1.51,6,3,11.94,4.5,17.93,1.67,6.62,3.31,13.25,5,19.87l1.24,4.93a3.17,3.17,0,0,1,.07,1.56,3,3,0,0,1-2.68,2.29,2.9,2.9,0,0,1-3-2c-.2-.72-.38-1.46-.56-2.2-1.87-7.44-3.72-14.85-5.59-22.28-1.44-5.72-2.88-11.47-4.32-17.19q-2.48-9.82-5-19.64L75.58,95.47c-1.85-7.3-3.69-14.6-5.63-21.88-.11-.45-.25-.9-.36-1.35a2.9,2.9,0,0,1,2.07-3.53A3.38,3.38,0,0,1,72.38,68.62Z"></path><path class="cls-1" d="M63.69,106.82a2.89,2.89,0,0,1,2.77,1.91c.2.59.36,1.18.54,1.76,1,3.63,1.91,7.28,2.84,10.93q1.89,7.5,3.73,15c.82,3.24,1.6,6.46,2.39,9.71a2.88,2.88,0,0,1-1.57,3.33,2.93,2.93,0,0,1-4.1-1.89c-.21-.72-.36-1.46-.54-2.21q-2.37-9.6-4.76-19.19c-1-4.17-2.11-8.33-3.2-12.52-.27-1.06-.58-2.12-.87-3.18A2.88,2.88,0,0,1,62.67,107,2.35,2.35,0,0,1,63.69,106.82Z"></path><path class="cls-1" d="M180,80c-.13-1.67-.31-3.34-.6-5a53.15,53.15,0,0,0-2.48-9.4A50.07,50.07,0,0,0,165.8,47.64,45.2,45.2,0,0,0,138,33.93a51.31,51.31,0,0,0-6.21-.34,60.1,60.1,0,0,0-12.87,1.57c-2.27.55-4.52,1.11-6.8,1.69q-9,2.26-18.06,4.51a28,28,0,0,0-4.33,1.4,13.93,13.93,0,0,0-3.51,2A8.26,8.26,0,0,0,83,51.32,14.81,14.81,0,0,0,83.46,55c.75,2.93,1.49,5.88,2.23,8.81,1.33,5.25,2.66,10.47,4,15.72C91,84.63,92.25,89.7,93.53,94.79c1.24,4.93,2.5,9.84,3.74,14.78,1.33,5.22,2.64,10.45,4,15.65,1.35,5.39,2.72,10.77,4.07,16.13s2.71,10.72,4.08,16.09l3.88,15.29c.58,2.3,1.14,4.57,1.71,6.87a44,44,0,0,0,1.91,6.13,24.79,24.79,0,0,0,4.06,6.8,18.3,18.3,0,0,0,7.9,5.54,19.52,19.52,0,0,0,6.38,1.17,24.47,24.47,0,0,0,4.28-.22c.81-.11,1.62-.25,2.41-.38l1.91-.34c.21-.05.23-.09.18-.32-.42-1.66-.85-3.31-1.26-5-1.53-6-3.06-12.05-4.59-18.06s-3.09-12.12-4.64-18.18q-2.21-8.65-4.4-17.28c-.4-1.55-.78-3.11-1.19-4.66-.05-.2,0-.27.16-.32l.2,0,11.58-2.91a69.87,69.87,0,0,0,6.82-2,54.13,54.13,0,0,0,13.61-6.89,45.6,45.6,0,0,0,15.84-19.46,47.17,47.17,0,0,0,3.24-11.13c.29-1.78.49-3.58.61-5.36A46.82,46.82,0,0,0,180,80Zm-5.78,6.48a44.38,44.38,0,0,1-.5,4.62,43.32,43.32,0,0,1-1.82,7.28A39.85,39.85,0,0,1,156,118.65a48.43,48.43,0,0,1-11.53,5.6c-2,.68-4.08,1.22-6.15,1.74L123,129.84c-.66.16-1.31.32-1.94.5-.2,0-.25.11-.18.31.18.77.38,1.53.58,2.3q2.27,8.88,4.53,17.82c1.51,5.9,3,11.8,4.51,17.7,1.44,5.63,2.86,11.24,4.3,16.88.68,2.61,1.33,5.24,2,7.86,0,.06,0,.13,0,.18a.32.32,0,0,1-.2.09,13.68,13.68,0,0,1-9-2.57,14.42,14.42,0,0,1-2.92-3,22,22,0,0,1-2.8-5.43,42.57,42.57,0,0,1-1.26-4.41c-.49-2-1-4-1.51-6-1.42-5.65-2.86-11.29-4.28-16.92-1.28-5.09-2.57-10.16-3.85-15.25-1.44-5.65-2.86-11.31-4.3-17q-2-8-4.06-16.09c-1.51-5.94-3-11.91-4.52-17.86Q96.1,80.63,94,72.36c-1.45-5.66-2.86-11.31-4.31-17-.2-.81-.4-1.64-.58-2.48A7.13,7.13,0,0,1,89,51.5a2.65,2.65,0,0,1,1.1-2.23,7.51,7.51,0,0,1,1.36-.81,20.36,20.36,0,0,1,3.82-1.33l22.44-5.61c1.69-.43,3.38-.86,5.07-1.15,1.44-.27,2.88-.47,4.35-.63a47.5,47.5,0,0,1,6.08-.27,41.28,41.28,0,0,1,15.27,3.15,39.54,39.54,0,0,1,14.08,10A44.56,44.56,0,0,1,172,69.13a50,50,0,0,1,1.83,7.69c.24,1.68.4,3.4.49,5.11C174.27,83.42,174.24,84.92,174.18,86.43Z"></path><path class="cls-1" d="M130.07,50.84a33.52,33.52,0,0,1,11.56,1.71A24.37,24.37,0,0,1,153.7,62a31.43,31.43,0,0,1,3.56,7.21,2.94,2.94,0,0,1-1.65,3.67,2.91,2.91,0,0,1-3.8-1.56c-.14-.29-.23-.6-.34-.9a23.41,23.41,0,0,0-3.69-6.57,18.38,18.38,0,0,0-9.17-6.09,25.57,25.57,0,0,0-4.69-.9,30.77,30.77,0,0,0-5.43,0,44.44,44.44,0,0,0-7.18,1.08c-3.9.9-7.77,1.89-11.65,2.88l-.27.07a.15.15,0,0,0-.13.2c0,.2.09.43.15.63q2.53,10,5.09,20,1.77,7,3.52,14c.9,3.63,1.8,7.24,2.72,10.86a2.82,2.82,0,0,1-.85,3,2.92,2.92,0,0,1-4.73-1.26c-.23-.68-.36-1.4-.54-2.1-1.85-7.3-3.67-14.6-5.52-21.92-1.44-5.76-2.91-11.53-4.37-17.27-.84-3.29-1.69-6.56-2.55-9.85-.11-.45-.11-.47.32-.58,5.4-1.38,10.79-2.75,16.22-4.06,1.82-.45,3.67-.83,5.54-1.1A45,45,0,0,1,130.07,50.84Z"></path><path class="cls-1" d="M228.44,184.06a2.93,2.93,0,0,1-2.41-1.24,3,3,0,0,1,.7-4.14,91.3,91.3,0,0,0,35.41-51.47,3,3,0,0,1,5.74,1.46,97.05,97.05,0,0,1-37.71,54.83A3,3,0,0,1,228.44,184.06Z"></path><path class="cls-1" d="M212.15,193.66a3,3,0,0,1-2.86-2.21l-5.2-19.64,2.09-1.11c29.56-15.65,48.64-50.73,48.64-89.36a115.79,115.79,0,0,0-1.94-21.17,3,3,0,0,1,5.84-1.11,122.49,122.49,0,0,1,2,22.26c0,39.89-19.44,76.3-49.72,93.46l4,15.12a3,3,0,0,1-2.1,3.62A2.64,2.64,0,0,1,212.15,193.66Z"></path><path class="cls-1" d="M160.82,204.83a3,3,0,0,1-2.89-2.23l-15.49-60.73,3.17-.54c.27-.05,26.9-4.8,39.94-27.93a67.26,67.26,0,0,0,8.61-33.16c0-5.43-1.29-33.38-24.62-50.17-14.26-10.25-30-10.74-36-10.92A72.4,72.4,0,0,0,107.3,23.2a3,3,0,1,1-2-5.61,78.88,78.88,0,0,1,28.4-4.37c6.42.21,23.52.75,39.26,12.06,25.68,18.47,27.08,49,27.1,55a73,73,0,0,1-9.37,36.06c-11.8,21-33,28.16-41,30.19l13.94,54.62a3,3,0,0,1-2.14,3.61A3.15,3.15,0,0,1,160.82,204.83Z"></path><path class="cls-1" d="M16,224.9A15,15,0,1,0,30,239,15,15,0,0,0,16,224.9Zm0,25.68A10.67,10.67,0,0,1,4.33,238.93,10.73,10.73,0,1,1,16,250.58Z"></path><path class="cls-1" d="M38.1,231.68h-4v23.25h4V242.31a6.91,6.91,0,0,1,9-6.78V232c-3.56-.81-6.82-.12-9,2.88Z"></path><path class="cls-1" d="M74,246H69.84a7.1,7.1,0,0,1-7,5.34c-3.85,0-7.64-2.64-7.64-8.07s3.85-8,7.61-8a7.14,7.14,0,0,1,7.08,5.34H74c-1.13-6-6.2-9-11.29-9-5.83,0-11.62,3.86-11.62,11.65S57,255,62.81,254.91C67.85,254.91,72.9,252,74,246Z"></path><path class="cls-1" d="M82.07,234.79v-9.91h-4V255h4V242.22c0-3.92,2.38-7,6.73-6.93,4.76.09,5.84,2.92,5.84,7.11V255h4V242.36c0-6.4-2.93-10.66-9.75-10.66C86.12,231.68,83.76,232.38,82.07,234.79Z"></path><path class="cls-1" d="M106.8,231.68h-4v23.25h4Z"></path><path class="cls-1" d="M174.4,234.79v-9.91h-4V255h4V242.22c0-3.92,2.39-7,6.74-6.93,4.75.09,5.83,2.92,5.83,7.11V255H191V242.36c0-6.4-2.92-10.66-9.75-10.66C178.46,231.68,176.11,232.38,174.4,234.79Z"></path><path class="cls-1" d="M219.11,231.68v23.25h-4.05v-3.4c-1.62,2.45-5.2,3.38-8,3.4-7.82,0-12-5.54-12-11.74s4.37-11.53,11.94-11.53c2.77,0,6.12.67,8.11,3.38l-.05-3.38h4.05Zm-12.18,3.58a7.58,7.58,0,0,0-7.82,8c0,4.33,3,8.25,8.13,8.11a8,8,0,0,0-.31-16.06Z"></path><path class="cls-1" d="M227.18,231.68h-4v22.8h4V242.36a6.94,6.94,0,0,1,9-6.83V232c-3.55-.83-6.82-.13-9,2.89Z"></path><path class="cls-1" d="M130.23,224.88h4.05V255h-4.05V251.5c-1.62,2.48-4.67,3.41-7.48,3.45-7.82,0-11.89-5.07-11.89-11.83,0-5.67,3.26-10.27,9.1-11.37l2.14,3.4a7.83,7.83,0,0,0-7.19,8c0,4.78,2.88,8.32,8,8.18,3.72-.09,7.32-2.77,7.32-8.11a8.81,8.81,0,0,0-1.1-4.46l-4.46-7.09a7.8,7.8,0,0,1,5.54,3.17Z"></path><path class="cls-1" d="M157,224.88c6.24,0,9.39,4.93,9.39,9.86s-3.13,9.83-9.39,9.83h-6.38V255h-4.21V225l4.21,6.73v8.65H157c3.51,0,5.24-2.77,5.24-5.56s-1.73-5.61-5.24-5.61h-3.14l-2.68-4.3H157Z"></path><path class="cls-1" d="M328.75,224.88h-4.06v9.93a7.76,7.76,0,0,0-5.52-3.17l4.42,7,0,0a8.86,8.86,0,0,1,1.12,4.52c0,5.34-3.6,8-7.32,8.09-5.11.14-8.06-3.4-8-8.18a7.83,7.83,0,0,1,7.21-8l-2.14-3.4c-5.85,1.08-9.12,5.7-9.12,11.37,0,6.76,4.1,11.83,11.89,11.83,2.82,0,5.88-1,7.48-3.45V255h4.06V224.88Z"></path><path class="cls-1" d="M301.22,242.29a5.53,5.53,0,0,1-.09,2H282.21c0,4.42,4.17,7.07,7.52,7.07a7.19,7.19,0,0,0,6.65-3.74h4.17A11.17,11.17,0,0,1,289.69,255c-5.75,0-11.53-3.92-11.53-11.65a12.14,12.14,0,0,1,1.68-6.42l2.53,4v0H297c-.78-4-4-5.6-7.18-5.6a8.06,8.06,0,0,0-5.09,1.66l-2-3.11a12.27,12.27,0,0,1,7-2.14C295.32,231.68,300.77,235.22,301.22,242.29Z"></path><path class="cls-1" d="M257.39,234.38l2.68,4.19a7.88,7.88,0,0,0-.63,3.18v13.18h-4.06V241.8c0-3.14-1.19-6.4-4.91-6.4-3.56,0-6.24,2.43-6.24,6.82V255h-4V231.66h4v3.13a7.09,7.09,0,0,1,6.29-3.13C253.24,231.64,255.72,232.2,257.39,234.38Z"></path><path class="cls-1" d="M265.27,231.64c6.15,0,8.85,4.34,8.85,10v13.29h-4.05V241.68c0-3.13-.79-6.28-4.66-6.28a6.6,6.6,0,0,0-2.32.38l-2-3.15A9.35,9.35,0,0,1,265.27,231.64Z"></path><path class="cls-1" d="M106.8,226.91a2,2,0,1,1-2-2A2,2,0,0,1,106.8,226.91Z"></path><path class="cls-2" d="M83.76,272.27a7.5,7.5,0,0,0-5.34-2.36c-2.23,0-3.61,1.19-3.61,2.63,0,1.94,1.33,2.75,5.68,5.27a9.65,9.65,0,0,1,2.93,2.55,6,6,0,0,1,1.24,3.76c0,3.58-2.57,6.22-6.6,6.22a10.29,10.29,0,0,1-6.15-2.1V284.1a8,8,0,0,0,6.15,3.33c1.71,0,3.53-1.06,3.53-3s-1.93-3.31-3-3.95c-3.61-2.16-4.64-2.79-5.66-4.07a5.32,5.32,0,0,1-1.12-3.4c0-3.45,2.61-6,6.71-6a9.5,9.5,0,0,1,5.25,1.6v3.69Z"></path><path class="cls-2" d="M90.65,290.34h-3V267h3Zm3.9-7.64,7.7,7.64h-4l-7.51-7.64,6.65-7.34H101Z"></path><path class="cls-2" d="M107.93,298h-3.31l5.11-10.88-5.81-11.78h3.38l4,8.45,3.87-8.45h3.34Z"></path><path class="cls-2" d="M120.07,274.91a4.31,4.31,0,0,0,1.37-3.34,2.12,2.12,0,0,1-1.73-2.14,2.1,2.1,0,0,1,2-2.16c1.44,0,2.28,1.51,2.28,3.13a5.32,5.32,0,0,1-3.9,5.14v-.63Z"></path><path class="cls-2" d="M130.93,279.37a8.42,8.42,0,0,0-4.35-1.53c-1.4,0-1.89.74-1.89,1.28,0,.92,1,1.44,3.24,2.64s3.74,2.59,3.74,4.52c0,1.36-1.06,4.08-5.14,4.08a10.62,10.62,0,0,1-5-1.33V286a10.18,10.18,0,0,0,4.78,1.89c.94,0,2.27-.52,2.27-1.47s-.9-1.51-2.29-2.25c-2.48-1.31-4.64-2.59-4.64-5,0-2.12,1.91-3.76,4.77-3.76a9.76,9.76,0,0,1,4.55,1.19v2.82Z"></path><path class="cls-2" d="M146.15,275.36h4.73V278h-4.73v6.24c0,1.87.07,2.21.54,2.72a2.14,2.14,0,0,0,1.6.64,6.23,6.23,0,0,0,3.38-1.06v2.77a8.68,8.68,0,0,1-3.83,1,4.94,4.94,0,0,1-3.89-1.89,7.44,7.44,0,0,1-.75-4.08V278h-2.61v-.29l5.56-5.48Z"></path><path class="cls-2" d="M157.62,277.61a6.06,6.06,0,0,1,4.59-2.27,4.83,4.83,0,0,1,4.49,2.83,11.24,11.24,0,0,1,.56,3.9v8.25h-3v-9a4.26,4.26,0,0,0-.54-2.3,2.83,2.83,0,0,0-2.37-1.37c-1.44,0-2.48.74-3.76,2.2v10.46h-3V267h3Z"></path><path class="cls-2" d="M183.52,288.63a10,10,0,0,1-5.88,1.71,6.71,6.71,0,0,1-5.18-2,7.58,7.58,0,0,1-2.23-5.56c0-4.51,2.93-7.41,7-7.41a6.28,6.28,0,0,1,6.37,5.58,11.78,11.78,0,0,1,.16,2.14H173.23a4.59,4.59,0,0,0,4.84,4.53,9.57,9.57,0,0,0,5.43-1.76v2.8Zm-2.68-7.26a3.46,3.46,0,0,0-3.62-3.56,3.91,3.91,0,0,0-2.86,1.22,3.77,3.77,0,0,0-1,2.34Z"></path><path class="cls-2" d="M196,287.36h10.25v3H192.69V267H196Z"></path><path class="cls-2" d="M218.1,275.36v2.27c1.74-1.73,2.93-2.27,4.48-2.27a5,5,0,0,1,4.42,2.7c1.94-1.94,3.17-2.7,4.93-2.7,3.25,0,5,2.14,5,5.95v9.05H234v-8.85c0-2.37-1.17-3.61-3.1-3.61a4.82,4.82,0,0,0-3.38,1.87v10.59h-2.93v-8.67c0-2-.47-3.81-3-3.81a4.61,4.61,0,0,0-3.52,1.92v10.58h-2.93v-15h2.93Z"></path><path class="cls-2" d="M251.42,275.36h4.73V278h-4.73v6.24c0,1.87.06,2.21.54,2.72a2.11,2.11,0,0,0,1.6.64,6.25,6.25,0,0,0,3.38-1.06v2.77a8.74,8.74,0,0,1-3.83,1,5,5,0,0,1-3.9-1.89,7.52,7.52,0,0,1-.74-4.08V278h-2.62v-.29l5.57-5.48Z"></path><path class="cls-2" d="M212.2,290.34h-3v-15h3Zm-1.49-20.68a1.49,1.49,0,1,0,1.49,1.49A1.51,1.51,0,0,0,210.71,269.66Z"></path><path class="cls-2" d="M242.88,290.34h-3v-15h3Zm-1.49-20.68a1.49,1.49,0,1,0,1.49,1.49A1.49,1.49,0,0,0,241.39,269.66Z"></path></g></g></svg>